<svg width="21" height="21" viewBox="0 0 21 21" fill="none" xmlns="http://www.w3.org/2000/svg">
<g clip-path="url(#clip0_214_6426)">
<path d="M18.3634 6.83652H9.56341C9.11897 6.83652 8.69675 6.96986 8.29675 7.23652C8.20786 6.56986 7.93008 6.02541 7.46341 5.60319C6.99675 5.18097 6.4523 4.96986 5.83008 4.96986C5.34119 4.96986 4.89675 5.08097 4.49674 5.30319V4.30319C4.49674 4.12541 4.44119 3.98097 4.33008 3.86986C4.21897 3.75874 4.07452 3.70319 3.89674 3.70319H1.43008C1.2523 3.70319 1.10786 3.75874 0.996745 3.86986C0.885634 3.98097 0.830078 4.12541 0.830078 4.30319V16.8365C0.830078 17.0143 0.885634 17.1587 0.996745 17.2699C1.10786 17.381 1.2523 17.4365 1.43008 17.4365H3.89674C4.07452 17.4365 4.21897 17.381 4.33008 17.2699C4.44119 17.1587 4.49674 17.0143 4.49674 16.8365V14.9032H17.1634V16.8365C17.1634 17.0143 17.219 17.1587 17.3301 17.2699C17.4412 17.381 17.5856 17.4365 17.7634 17.4365H20.2301C20.4079 17.4365 20.5523 17.381 20.6634 17.2699C20.7745 17.1587 20.8301 17.0143 20.8301 16.8365V9.30319C20.8301 8.63652 20.5856 8.05875 20.0967 7.56986C19.6079 7.08097 19.0301 6.83652 18.3634 6.83652ZM5.83008 6.10319C6.18563 6.10319 6.48563 6.23652 6.73008 6.50319C6.97452 6.76986 7.09675 7.08097 7.09675 7.43652C7.09675 7.79208 6.97452 8.09208 6.73008 8.33652C6.48563 8.58097 6.18563 8.70319 5.83008 8.70319C5.47452 8.70319 5.16341 8.58097 4.89675 8.33652C4.63008 8.09208 4.49674 7.79208 4.49674 7.43652C4.49674 7.08097 4.63008 6.76986 4.89675 6.50319C5.16341 6.23652 5.47452 6.10319 5.83008 6.10319ZM4.49674 9.50319C4.89675 9.76986 5.33008 9.90319 5.79675 9.90319C6.26341 9.90319 6.69675 9.76986 7.09675 9.50319V11.2365H4.49674V9.50319ZM19.6301 16.2365H18.2967V14.3032C18.2967 14.1699 18.2412 14.0476 18.1301 13.9365C18.019 13.8254 17.8967 13.7699 17.7634 13.7699H3.89674C3.76341 13.7699 3.64119 13.8254 3.53008 13.9365C3.41897 14.0476 3.36341 14.1699 3.36341 14.3032V16.2365H2.03008V4.90319H3.36341V11.8365C3.36341 11.9699 3.41897 12.1032 3.53008 12.2365C3.64119 12.3699 3.76341 12.4365 3.89674 12.4365H19.6301V16.2365ZM19.6301 11.2365H8.29675V9.30319C8.29675 8.94763 8.41897 8.64763 8.66341 8.40319C8.90786 8.15875 9.20786 8.03652 9.56341 8.03652H18.3634C18.719 8.03652 19.019 8.15875 19.2634 8.40319C19.5079 8.64763 19.6301 8.94763 19.6301 9.30319V11.2365Z" fill="#1A1A1A"/>
</g>
<defs>
<clipPath id="clip0_214_6426">
<rect width="20" height="20" fill="white" transform="matrix(1 0 0 -1 0.830078 20.5698)"/>
</clipPath>
</defs>
</svg>
