<svg width="21" height="21" viewBox="0 0 21 21" fill="none" xmlns="http://www.w3.org/2000/svg">
<g clip-path="url(#clip0_214_6421)">
<path d="M16.9636 2.60316C16.1191 1.80316 15.1747 1.18093 14.1302 0.73649C13.0858 0.292045 11.9858 0.0698232 10.8302 0.0698232C9.67469 0.0698232 8.56357 0.292045 7.49691 0.73649C6.43024 1.18093 5.49691 1.80316 4.69691 2.60316C3.89691 3.40316 3.27469 4.33649 2.83024 5.40316C2.3858 6.46982 2.16357 7.58093 2.16357 8.73649C2.16357 9.89205 2.3858 10.992 2.83024 12.0365C3.27469 13.0809 3.89691 14.0254 4.69691 14.8698L9.29691 19.4698C9.69691 19.8698 10.1969 20.0698 10.7969 20.0698C11.3969 20.0698 11.9191 19.8698 12.3636 19.4698L16.9636 14.8698C17.7636 14.0254 18.3858 13.0809 18.8302 12.0365C19.2747 10.992 19.4969 9.89205 19.4969 8.73649C19.4969 7.58093 19.2747 6.46982 18.8302 5.40316C18.3858 4.33649 17.7636 3.40316 16.9636 2.60316ZM16.0969 14.0032L11.4969 18.6032C11.3191 18.7809 11.0969 18.8698 10.8302 18.8698C10.5636 18.8698 10.3191 18.7809 10.0969 18.6032L5.49691 14.0032C4.7858 13.292 4.25246 12.4809 3.89691 11.5698C3.54135 10.6587 3.36357 9.70316 3.36357 8.70316C3.36357 7.70316 3.54135 6.7476 3.89691 5.83649C4.25246 4.92538 4.7858 4.12538 5.49691 3.43649C6.20802 2.7476 7.01913 2.21427 7.93024 1.83649C8.84135 1.45871 9.79691 1.26982 10.7969 1.26982C11.7969 1.26982 12.7525 1.45871 13.6636 1.83649C14.5747 2.21427 15.3858 2.73649 16.0969 3.40316C17.0747 4.38093 17.7302 5.51427 18.0636 6.80316C18.3969 8.09205 18.3969 9.38093 18.0636 10.6698C17.7302 11.9587 17.0747 13.0698 16.0969 14.0032ZM10.8302 5.60316C9.9858 5.60316 9.25246 5.91427 8.63024 6.53649C8.00802 7.15871 7.69691 7.89205 7.69691 8.73649C7.69691 9.58093 8.00802 10.3032 8.63024 10.9032C9.25246 11.5032 9.9858 11.8032 10.8302 11.8032C11.6747 11.8032 12.3969 11.5032 12.9969 10.9032C13.5969 10.3032 13.8969 9.58093 13.8969 8.73649C13.8969 7.89205 13.5969 7.15871 12.9969 6.53649C12.3969 5.91427 11.6747 5.60316 10.8302 5.60316ZM10.8302 10.6698C10.2969 10.6698 9.84135 10.4809 9.46357 10.1032C9.0858 9.72538 8.89691 9.26982 8.89691 8.73649C8.89691 8.20316 9.0858 7.7476 9.46357 7.36982C9.84135 6.99205 10.2969 6.80316 10.8302 6.80316C11.3636 6.80316 11.8191 6.99205 12.1969 7.36982C12.5747 7.7476 12.7636 8.20316 12.7636 8.73649C12.7636 9.26982 12.5747 9.72538 12.1969 10.1032C11.8191 10.4809 11.3636 10.6698 10.8302 10.6698Z" fill="#1A1A1A"/>
</g>
<defs>
<clipPath id="clip0_214_6421">
<rect width="20" height="20" fill="white" transform="matrix(1 0 0 -1 0.830078 20.0698)"/>
</clipPath>
</defs>
</svg>
