<svg width="22" height="20" viewBox="0 0 22 20" fill="none" xmlns="http://www.w3.org/2000/svg">
<g clip-path="url(#clip0_2001_54)">
<path fill-rule="evenodd" clip-rule="evenodd" d="M18.6405 14.5985L18.6477 7.64692L13.7001 2.7149C12.2069 1.22837 9.79313 1.22837 8.30009 2.7149L3.36328 7.63492V14.5949C3.36725 16.7 5.07662 18.4034 7.18168 18.4001H14.8221C16.9257 18.4035 18.6345 16.7021 18.6405 14.5985Z" stroke="white" stroke-width="1.5" stroke-linecap="round" stroke-linejoin="round"/>
<path d="M19.5488 2.82168C19.5488 2.32462 19.1458 1.92168 18.6488 1.92168C18.1518 1.92168 17.7488 2.32462 17.7488 2.82168H19.5488ZM18.6488 7.64692H17.7488C17.7488 7.88608 17.844 8.1154 18.0134 8.28424L18.6488 7.64692ZM19.9646 10.2294C20.3166 10.5804 20.8864 10.5795 21.2373 10.2275C21.5883 9.87544 21.5875 9.30568 21.2354 8.95468L19.9646 10.2294ZM3.99863 8.27224C4.35064 7.92136 4.35151 7.35147 4.00057 6.99946C3.64964 6.64745 3.07979 6.64658 2.72778 6.99752L3.99863 8.27224ZM0.764579 8.95468C0.412571 9.30568 0.411695 9.87544 0.762635 10.2275C1.11356 10.5795 1.68342 10.5804 2.03543 10.2294L0.764579 8.95468ZM12.5 18.4001C12.5 18.8972 12.903 19.3001 13.4 19.3001C13.897 19.3001 14.3 18.8972 14.3 18.4001H12.5ZM7.7 18.4001C7.7 18.8972 8.10296 19.3001 8.6 19.3001C9.09704 19.3001 9.5 18.8972 9.5 18.4001H7.7ZM17.7488 2.82168V7.64692H19.5488V2.82168H17.7488ZM18.0134 8.28424L19.9646 10.2294L21.2354 8.95468L19.2842 7.0095L18.0134 8.28424ZM2.72778 6.99752L0.764579 8.95468L2.03543 10.2294L3.99863 8.27224L2.72778 6.99752ZM14.3 18.4001V16.2641H12.5V18.4001H14.3ZM14.3 16.2641C14.3 14.4416 12.8226 12.9641 11 12.9641V14.7641C11.8285 14.7641 12.5 15.4356 12.5 16.2641H14.3ZM11 12.9641C9.17744 12.9641 7.7 14.4416 7.7 16.2641H9.5C9.5 15.4356 10.1715 14.7641 11 14.7641V12.9641ZM7.7 16.2641V18.4001H9.5V16.2641H7.7Z" fill="white"/>
</g>
<defs>
<clipPath id="clip0_2001_54">
<rect width="22" height="20" fill="white"/>
</clipPath>
</defs>
</svg>
