<svg width="18" height="22" viewBox="0 0 18 22" fill="none" xmlns="http://www.w3.org/2000/svg">
<g clip-path="url(#clip0_2001_59)">
<path d="M9 9C11.2091 9 13 7.20914 13 5C13 2.79086 11.2091 1 9 1C6.79086 1 5 2.79086 5 5C5 7.20914 6.79086 9 9 9Z" stroke="white" stroke-width="1.5"/>
<path d="M16.9975 17C17 16.8358 17 16.669 17 16.5C17 14.0147 13.4183 12 9 12C4.58172 12 1 14.0147 1 16.5C1 18.9853 1 21 9 21C11.231 21 12.8398 20.8433 14 20.5634" stroke="white" stroke-width="1.5" stroke-linecap="round"/>
</g>
<defs>
<clipPath id="clip0_2001_59">
<rect width="18" height="22" fill="white"/>
</clipPath>
</defs>
</svg>
