<svg width="61" height="51" viewBox="0 0 61 51" fill="none" xmlns="http://www.w3.org/2000/svg">
<rect y="10.7341" width="40" height="40" rx="20" fill="#D4AF36"/>
<g clip-path="url(#clip0_214_6732)">
<path d="M39.6237 20.9033C38.4791 20.9033 37.6648 19.9119 37.0138 19.1196C36.8921 18.9715 36.7656 18.8167 36.6313 18.659C36.2865 18.2533 36.3367 17.6465 36.7443 17.3042C37.1519 16.9619 37.7614 17.0109 38.1063 17.4158C38.2473 17.5821 38.3815 17.7456 38.51 17.9013C39.5571 19.1783 39.5822 19.1609 40.2351 18.6446C41.345 17.7667 42.8827 16.2311 43.9433 15.1533C44.318 14.7734 44.9285 14.7677 45.309 15.1379C45.6906 15.51 45.6964 16.1186 45.3245 16.4975C44.2282 17.6129 42.6325 19.2042 41.4367 20.1504C40.7509 20.6917 40.1521 20.9033 39.6237 20.9033Z" fill="black"/>
<path d="M56.6416 11.1445C56.4929 11.1445 56.3402 11.1099 56.1982 11.0368C55.3434 10.5965 52.3356 8.97242 49.15 7.25127C45.609 5.33877 41.9463 3.36088 40.5901 2.65608C40.1168 2.40992 39.9343 1.82915 40.1815 1.358C40.4288 0.888768 41.0122 0.705115 41.4846 0.950307C42.8542 1.66281 46.5237 3.64454 50.0715 5.56088C53.2474 7.27627 56.2485 8.89646 57.0869 9.32915C57.5602 9.57338 57.7456 10.1532 57.5003 10.6253C57.3284 10.9551 56.9922 11.1445 56.6416 11.1445Z" fill="black"/>
<path d="M41.0021 38.4118C40.6293 38.4118 40.2738 38.1955 40.1164 37.833C39.9039 37.3464 40.128 36.7791 40.6167 36.5686C54.9518 30.3647 55.6781 13.5003 55.6781 10.183C55.6781 9.65124 56.1099 9.22144 56.6441 9.22144C57.1782 9.22144 57.61 9.65124 57.61 10.183C57.61 20.3974 53.3484 33.1561 41.3875 38.332C41.2619 38.3868 41.1306 38.4118 41.0021 38.4118Z" fill="black"/>
<path d="M25.4348 11.1444C25.0852 11.1444 24.7481 10.956 24.5761 10.6252C24.3308 10.154 24.5162 9.57326 24.9895 9.32903C25.8279 8.89634 28.8281 7.27614 32.0049 5.56076C35.5527 3.64441 39.2222 1.66268 40.5919 0.950182C41.0661 0.704028 41.6486 0.887681 41.8949 1.35787C42.1421 1.82807 41.9586 2.4098 41.4863 2.65595C40.1302 3.36076 36.4674 5.33864 32.9264 7.25114C29.7418 8.97133 26.733 10.5963 25.8791 11.0367C25.7362 11.1098 25.5845 11.1444 25.4348 11.1444Z" fill="black"/>
<path d="M41.0014 38.4128C40.8729 38.4128 40.7425 38.3878 40.6169 38.333C28.6542 33.157 24.3916 20.3974 24.3916 10.183C24.3916 9.65124 24.8243 9.22144 25.3575 9.22144C25.8907 9.22144 26.3234 9.65124 26.3234 10.183C26.3234 13.5003 27.0498 30.3657 41.3868 36.5695C41.8765 36.781 42.1006 37.3484 41.8881 37.8339C41.7297 38.1974 41.3742 38.4128 41.0014 38.4128Z" fill="black"/>
<path d="M41.1739 28.1974C37.7884 28.1974 35.0384 27.0167 33.0013 24.6897C32.3397 23.934 31.7659 22.9859 31.3853 22.0195C30.886 20.7513 30.6281 19.2138 30.6957 17.9061C30.8164 15.5599 31.3428 13.7465 32.3068 12.3609C33.9894 9.94359 37.1538 8.44263 40.5644 8.44263C40.7856 8.44263 41.0058 8.44936 41.2231 8.46282C45.504 8.72051 49.1571 11.0686 50.5316 14.4484C51.7583 17.4628 51.5294 20.7022 49.9057 23.334C49.1436 24.5705 47.6735 25.9946 46.3338 26.7955C44.8598 27.6753 43.1009 28.1744 41.3815 28.1984L41.1739 28.1974ZM40.5634 10.3647C38.3785 10.3647 35.4798 11.1772 33.8928 13.4551C33.1394 14.5369 32.7241 16.0253 32.6227 18.0022C32.5696 19.0359 32.784 20.3061 33.1819 21.3167C33.4794 22.0705 33.944 22.8397 34.456 23.4244C36.1338 25.3417 38.3302 26.2734 41.1729 26.2734L41.3516 26.2724C42.7357 26.2522 44.1518 25.8513 45.3369 25.1436C46.4217 24.4955 47.6503 23.3109 48.2559 22.3253C49.5753 20.1869 49.7473 17.6455 48.7389 15.1667C47.4059 11.8917 43.7934 10.5407 41.1053 10.3792C40.9266 10.3705 40.746 10.3647 40.5634 10.3647Z" fill="black"/>
</g>
<defs>
<clipPath id="clip0_214_6732">
<rect width="40" height="40" fill="white" transform="translate(21 0.520264)"/>
</clipPath>
</defs>
</svg>
