<svg width="61" height="51" viewBox="0 0 61 51" fill="none" xmlns="http://www.w3.org/2000/svg">
<rect y="10.438" width="40" height="40" rx="20" fill="#D4AF36"/>
<g clip-path="url(#clip0_214_6745)">
<path d="M50.7289 19.758C55.556 19.758 59.4692 15.8715 59.4692 11.0773C59.4692 6.28317 55.556 2.39673 50.7289 2.39673C45.9016 2.39673 41.9885 6.28317 41.9885 11.0773C41.9885 13.298 43.0048 14.9129 43.0048 14.9129L32.4351 25.4104C31.9609 25.8814 31.2969 27.1062 32.4351 28.2367L33.6547 29.4479C34.129 29.8516 35.3214 30.417 36.2971 29.4479L37.72 28.0348C39.1427 29.4479 40.7689 28.6404 41.3786 27.8329C42.3949 26.4197 41.1754 25.0067 41.1754 25.0067L41.582 24.6029C43.5333 26.5409 45.2407 25.4104 45.8505 24.6029C46.8669 23.1897 45.8505 21.7766 45.8505 21.7766C45.4439 20.9692 44.631 20.9692 45.6471 19.9598L46.8669 18.7485C47.8424 19.5561 49.848 19.758 50.7289 19.758Z" stroke="#1C274C" stroke-width="2" stroke-linejoin="round"/>
<path d="M22.5859 20.769C22.5859 29.4472 22.5859 33.7863 25.2894 36.4824C27.9928 39.1783 32.3439 39.1783 41.0462 39.1783C49.7483 39.1783 54.0994 39.1783 56.803 36.4824C58.8592 34.4317 59.3514 31.4303 59.4693 26.2919M35.5081 2.39673C30.3554 2.51421 27.3457 3.00506 25.2894 5.05574C23.488 6.85214 22.8869 9.3781 22.6864 13.4312" stroke="#1C274C" stroke-width="2" stroke-linecap="round"/>
</g>
<defs>
<clipPath id="clip0_214_6745">
<rect width="40" height="40" fill="white" transform="translate(21 0.720215)"/>
</clipPath>
</defs>
</svg>
