<svg width="61" height="51" viewBox="0 0 61 51" fill="none" xmlns="http://www.w3.org/2000/svg">
<rect y="9.79346" width="40.6667" height="40.6666" rx="20.3333" fill="#D4AF36"/>
<g clip-path="url(#clip0_214_6719)">
<path d="M47.2782 20.5195C43.5077 20.5195 40.0278 21.554 37.4436 23.6262C34.8594 25.6983 33.2343 28.846 33.2344 32.7116V32.7147V32.7179C33.2347 32.7754 33.2407 36.1839 33.2407 36.1839L33.2344 40.8195H60.9538L60.977 36.1839C60.977 36.1839 60.9817 34.509 60.9833 33.8661C60.9848 33.2232 60.991 32.6889 60.9895 32.7361V32.7237V32.7111C60.9895 28.4583 59.0314 25.2865 56.3478 23.3242C53.6642 21.3618 50.3108 20.5191 47.2806 20.519L47.2782 20.5195ZM47.2782 22.8586C49.8632 22.8587 52.7815 23.6181 54.9626 25.213C57.1438 26.8079 58.648 29.1494 58.648 32.7116C58.6448 32.8804 58.6432 33.2268 58.6417 33.8568C58.6401 34.5002 58.6386 35.34 58.6355 36.1776C58.6324 37.0109 58.6277 37.8403 58.623 38.4802H35.5882C35.585 37.8403 35.5803 37.0098 35.5787 36.1776C35.5741 34.5067 35.5741 32.8946 35.5725 32.7116C35.5725 29.4792 36.8289 27.115 38.9046 25.4506C40.9803 23.7862 43.938 22.8586 47.2782 22.8586Z" fill="black"/>
<path d="M47.2782 0.52417C42.353 0.52417 38.3359 4.53441 38.3359 9.45425C38.3359 14.3741 42.353 18.3874 47.2782 18.3874C52.2034 18.3874 56.2235 14.3741 56.2235 9.45425C56.2235 4.53441 52.2034 0.52417 47.2782 0.52417ZM47.2782 2.86329C50.9415 2.86329 53.8844 5.80083 53.8844 9.45425C53.8844 13.1077 50.9415 16.0483 47.2782 16.0483C43.6149 16.0483 40.6751 13.1077 40.6751 9.45425C40.6751 5.80083 43.6149 2.86329 47.2782 2.86329Z" fill="black"/>
<path d="M32.6098 21.4482C29.0954 21.4481 26.0249 22.4243 23.8229 24.3935C21.6209 26.3626 20.3716 29.3001 20.3721 32.8606V32.8637V32.8669C20.3724 32.9289 20.3784 36.2568 20.3784 36.2568L20.4019 40.8193H29.9758H31.2732V38.4802H29.9758H22.7239C22.7208 37.8568 22.7193 37.0594 22.7178 36.2537C22.7146 34.6116 22.713 33.0094 22.7115 32.8547C22.7126 29.8266 23.7011 27.6425 25.3826 26.1389C27.0641 24.6351 29.5243 23.7887 32.604 23.7876C32.952 23.7907 33.9835 23.8917 33.9835 23.8917C33.9835 23.8917 35.174 22.4705 35.7137 21.7834L34.5594 21.6037C33.917 21.5037 33.2666 21.4521 32.6162 21.4483H32.6131L32.6098 21.4482Z" fill="black"/>
<path d="M32.4925 3.54146C28.0498 3.51027 24.3938 7.10538 24.364 11.5426C24.3337 15.9798 27.9408 19.624 32.3836 19.653C34.3055 19.6639 36.1596 18.9883 37.6198 17.7635C37.7973 17.6149 37.9672 17.4589 38.1317 17.2948L38.7256 16.6981L37.3078 14.813L36.6807 15.4632C36.5658 15.5824 36.2434 15.8666 36.1182 15.9716C35.0813 16.8413 33.762 17.3222 32.3963 17.314C29.2152 17.2932 26.6815 14.7285 26.7031 11.5584C26.7244 8.38833 29.2926 5.85817 32.4737 5.88049C33.4436 5.88673 34.3981 6.13799 35.2434 6.61194L36.263 7.18539C36.263 7.18539 36.9943 5.27443 37.0972 4.97914L36.3873 4.57292C35.1973 3.90569 33.8571 3.55125 32.4925 3.54146Z" fill="black"/>
</g>
<defs>
<clipPath id="clip0_214_6719">
<rect width="40.6667" height="40.6667" fill="white" transform="translate(20.3335 0.320312)"/>
</clipPath>
</defs>
</svg>
