<svg width="60" height="65" viewBox="0 0 60 65" fill="none" xmlns="http://www.w3.org/2000/svg">
<path fill-rule="evenodd" clip-rule="evenodd" d="M50.8377 44.096L50.8574 25.3267L37.3639 12.0102C33.2917 7.9966 26.7086 7.9966 22.6366 12.0102L9.17261 25.2943V44.0863C9.18344 49.7699 13.8453 54.3691 19.5864 54.3603H40.4239C46.161 54.3694 50.8214 49.7757 50.8377 44.096Z" stroke="#D4AF36" stroke-width="4" stroke-linecap="round" stroke-linejoin="round"/>
<path d="M53.3148 12.2984C53.3148 10.9563 52.2158 9.86841 50.8603 9.86841C49.5047 9.86841 48.4057 10.9563 48.4057 12.2984H53.3148ZM50.8603 25.3265H48.4057C48.4057 25.9723 48.6652 26.5914 49.1274 27.0473L50.8603 25.3265ZM54.4488 32.2994C55.4087 33.2471 56.9629 33.2445 57.9199 32.2942C58.8771 31.3435 58.8748 29.8052 57.9146 28.8575L54.4488 32.2994ZM10.9052 27.0149C11.8653 26.0675 11.8676 24.5288 10.9105 23.5784C9.95346 22.628 8.39931 22.6256 7.43929 23.5732L10.9052 27.0149ZM2.0851 28.8575C1.12508 29.8052 1.12269 31.3435 2.0798 32.2942C3.03688 33.2445 4.59103 33.2471 5.55105 32.2994L2.0851 28.8575ZM34.0908 54.3602C34.0908 55.7022 35.1898 56.7902 36.5454 56.7902C37.9009 56.7902 38.9999 55.7022 38.9999 54.3602H34.0908ZM20.9999 54.3602C20.9999 55.7022 22.0989 56.7902 23.4544 56.7902C24.81 56.7902 25.909 55.7022 25.909 54.3602H20.9999ZM48.4057 12.2984V25.3265H53.3148V12.2984H48.4057ZM49.1274 27.0473L54.4488 32.2994L57.9146 28.8575L52.5932 23.6055L49.1274 27.0473ZM7.43929 23.5732L2.0851 28.8575L5.55105 32.2994L10.9052 27.0149L7.43929 23.5732ZM38.9999 54.3602V48.593H34.0908V54.3602H38.9999ZM38.9999 48.593C38.9999 43.6721 34.9705 39.683 29.9999 39.683V44.543C32.2594 44.543 34.0908 46.3561 34.0908 48.593H38.9999ZM29.9999 39.683C25.0293 39.683 20.9999 43.6721 20.9999 48.593H25.909C25.909 46.3561 27.7404 44.543 29.9999 44.543V39.683ZM20.9999 48.593V54.3602H25.909V48.593H20.9999Z" fill="#D4AF36"/>
</svg>
