<svg width="64" height="65" viewBox="0 0 64 65" fill="none" xmlns="http://www.w3.org/2000/svg">
<path d="M46.0283 31.2896C53.0083 31.2896 58.6667 25.6541 58.6667 18.7026C58.6667 11.7511 53.0083 6.11572 46.0283 6.11572C39.048 6.11572 33.3896 11.7511 33.3896 18.7026C33.3896 21.9225 34.8592 24.2642 34.8592 24.2642L19.5755 39.4856C18.8897 40.1685 17.9295 41.9445 19.5755 43.5837L21.339 45.34C22.0248 45.9253 23.7491 46.7451 25.1599 45.34L27.2174 43.2909C29.2747 45.34 31.6262 44.1691 32.5078 42.9981C33.9774 40.9491 32.2139 38.9003 32.2139 38.9003L32.8019 38.3147C35.6235 41.1248 38.0923 39.4856 38.9742 38.3147C40.4438 36.2656 38.9742 34.2165 38.9742 34.2165C38.3862 33.0459 37.2107 33.0459 38.68 31.5821L40.4438 29.8259C41.8544 30.9968 44.7544 31.2896 46.0283 31.2896Z" stroke="#D4AF36" stroke-width="3" stroke-linejoin="round"/>
<path d="M5.33334 32.7555C5.33334 45.3389 5.33334 51.6307 9.24252 55.54C13.1517 59.4491 19.4434 59.4491 32.0269 59.4491C44.6101 59.4491 50.9019 59.4491 54.8112 55.54C57.7845 52.5664 58.4963 48.2144 58.6667 40.7637M24.0188 6.11572C16.568 6.28607 12.216 6.9978 9.24252 9.9713C6.63772 12.5761 5.76857 16.2387 5.47857 22.1157" stroke="#D4AF36" stroke-width="3" stroke-linecap="round"/>
</svg>
