<svg width="64" height="65" viewBox="0 0 64 65" fill="none" xmlns="http://www.w3.org/2000/svg">
<g clip-path="url(#clip0_2001_373)">
<path d="M33.3667 5.94376H30.6333L23.7419 10.9337V6.97602H25.8064V0.782471H5.16129V6.97602H7.22581V22.8934L0 28.126V30.718H5.16129V64.7825H58.8387V30.718H64V28.126L33.3667 5.94376ZM7.22581 2.84699H23.7419V4.9115H7.22581V2.84699ZM21.6774 6.97602V12.4284L9.29032 21.3987V6.97602H21.6774ZM56.7742 62.718H7.22581V30.718H56.7742V62.718ZM57.8064 28.6534H56.7742H7.22581H6.19355H2.79226L31.3022 8.00828H32.6978L61.2077 28.6534H57.8064Z" fill="#D4AF36"/>
<path d="M23.7419 19.363C23.7419 23.9163 27.4467 27.6211 32 27.6211C36.5533 27.6211 40.2581 23.9163 40.2581 19.363C40.2581 14.8098 36.5533 11.105 32 11.105C27.4467 11.105 23.7419 14.8098 23.7419 19.363ZM38.1936 19.363C38.1936 22.7788 35.4157 25.5566 32 25.5566C28.5843 25.5566 25.8065 22.7788 25.8065 19.363C25.8065 15.9473 28.5843 13.1695 32 13.1695C35.4157 13.1695 38.1936 15.9473 38.1936 19.363Z" fill="#D4AF36"/>
<path d="M14.4516 54.4599H15.4839C17.761 54.4599 19.6129 52.608 19.6129 50.3309C19.6129 48.0537 17.761 46.2018 15.4839 46.2018H14.4516C13.313 46.2018 12.3871 45.2759 12.3871 44.1373C12.3871 42.9988 13.313 42.0728 14.4516 42.0728H15.4839C16.6224 42.0728 17.5484 42.9988 17.5484 44.1373V45.1696H19.6129V44.1373C19.6129 41.8602 17.761 40.0083 15.4839 40.0083H14.4516C12.1744 40.0083 10.3226 41.8602 10.3226 44.1373C10.3226 46.4145 12.1744 48.2664 14.4516 48.2664H15.4839C16.6224 48.2664 17.5484 49.1923 17.5484 50.3309C17.5484 51.4695 16.6224 52.3954 15.4839 52.3954H14.4516C13.313 52.3954 12.3871 51.4695 12.3871 50.3309V49.2986H10.3226V50.3309C10.3226 52.608 12.1744 54.4599 14.4516 54.4599Z" fill="#D4AF36"/>
<path d="M26.3226 54.4599C28.8836 54.4599 30.9678 52.3758 30.9678 49.8148V44.6535C30.9678 42.0924 28.8836 40.0083 26.3226 40.0083C23.7616 40.0083 21.6774 42.0924 21.6774 44.6535V49.8148C21.6774 52.3758 23.7616 54.4599 26.3226 54.4599ZM23.7419 44.6535C23.7419 43.231 24.8991 42.0728 26.3226 42.0728C27.7461 42.0728 28.9032 43.231 28.9032 44.6535V49.8148C28.9032 51.2372 27.7461 52.3954 26.3226 52.3954C24.8991 52.3954 23.7419 51.2372 23.7419 49.8148V44.6535Z" fill="#D4AF36"/>
<path d="M42.3225 52.3954H35.0967V40.0083H33.0322V54.4599H42.3225V52.3954Z" fill="#D4AF36"/>
<path d="M53.6774 49.2986V45.1696C53.6774 42.3237 51.3621 40.0083 48.5161 40.0083H44.3871V54.4599H48.5161C51.3621 54.4599 53.6774 52.1446 53.6774 49.2986ZM46.4516 42.0728H48.5161C50.2235 42.0728 51.6129 43.4622 51.6129 45.1696V49.2986C51.6129 51.006 50.2235 52.3954 48.5161 52.3954H46.4516V42.0728Z" fill="#D4AF36"/>
</g>
<defs>
<clipPath id="clip0_2001_373">
<rect width="64" height="64" fill="white" transform="translate(0 0.782471)"/>
</clipPath>
</defs>
</svg>
